<svg xmlns="http://www.w3.org/2000/svg" xmlns:xlink="http://www.w3.org/1999/xlink" version="1.1" id="Your_Icon" x="0px" y="0px" width="100px" height="100px" viewBox="0 0 100 100" enable-background="new 0 0 100 100" xml:space="preserve">
<g>
	<g>
		<g>
			<g>
			</g>
		</g>
		<g>
		</g>
	</g>
</g>
<path fill-rule="evenodd" clip-rule="evenodd" fill="#000000" d="M51.545,94.837h32.387c6.006,0,10.875-4.869,10.875-10.875v-7.599  L65.188,65.811L51.545,94.837z"/>
<path fill-rule="evenodd" clip-rule="evenodd" fill="#000000" d="M94.807,62.584V15.905c0-2.778-1.042-5.315-2.761-7.241  L70.734,54.01L94.807,62.584z"/>
<path fill-rule="evenodd" clip-rule="evenodd" fill="#000000" d="M43.852,32.277c0-6.248-5.08-11.345-11.313-11.345  c-6.23,0-11.314,5.097-11.314,11.345c0,6.248,5.083,11.342,11.314,11.342C38.772,43.619,43.852,38.525,43.852,32.277z"/>
<path fill-rule="evenodd" clip-rule="evenodd" fill="#000000" d="M15.875,5.03C9.87,5.03,5,9.899,5,15.905v68.057  c0,6.006,4.87,10.875,10.875,10.875H37.2L79.417,5.03H15.875z M37.622,74.501c-0.93,1.95-2.961,3.146-5.083,3.146  c-2.119,0-4.154-1.196-5.038-3.146l-16.13-34.295c-1.15-2.435-1.459-5.227-1.459-7.929c0-12.542,10.121-22.687,22.627-22.687  c12.506,0,22.626,10.145,22.626,22.687c0,2.702-0.309,5.494-1.459,7.929L37.622,74.501z"/>
</svg>